{
  "accessors": [
    {
      "bufferView": 2,
      "componentType": 5126,
      "count": 459,
      "max": [
        0.95207679271698,
        0.4003104269504547,
        0.31652963161468506
      ],
      "min": [
        -0.8365204930305481,
        0.025546975433826447,
        -0.30604249238967896
      ],
      "type": "VEC3"
    },
    {
      "bufferView": 2,
      "byteOffset": 5508,
      "componentType": 5126,
      "count": 459,
      "max": [
        0.9984922409057617,
        0.999914288520813,
        0.9978888630867004
      ],
      "min": [
        -0.9966340661048889,
        -0.9780172109603882,
        -0.9997310042381287
      ],
      "type": "VEC3"
    },
    {
      "bufferView": 3,
      "componentType": 5126,
      "count": 459,
      "max": [
        0.7492423057556152,
        0.9999933242797852,
        0.995868444442749,
        1.0
      ],
      "min": [
        -0.8991734981536865,
        -0.9994959831237793,
        -0.9999736547470093,
        1.0
      ],
      "type": "VEC4"
    },
    {
      "bufferView": 1,
      "componentType": 5126,
      "count": 459,
      "max": [
        0.953530490398407,
        0.9969659447669983
      ],
      "min": [
        0.011875187046825886,
        0.003075256710872054
      ],
      "type": "VEC2"
    },
    {
      "bufferView": 1,
      "byteOffset": 3672,
      "componentType": 5126,
      "count": 459,
      "max": [
        0.953530490398407,
        0.9969659447669983
      ],
      "min": [
        0.011875187046825886,
        0.003075256710872054
      ],
      "type": "VEC2"
    },
    {
      "bufferView": 1,
      "byteOffset": 7344,
      "componentType": 5126,
      "count": 459,
      "max": [
        0.953530490398407,
        0.9969659447669983
      ],
      "min": [
        0.011875187046825886,
        0.003075256710872054
      ],
      "type": "VEC2"
    },
    {
      "bufferView": 1,
      "byteOffset": 11016,
      "componentType": 5126,
      "count": 459,
      "max": [
        0.953530490398407,
        0.9969659447669983
      ],
      "min": [
        0.011875187046825886,
        0.003075256710872054
      ],
      "type": "VEC2"
    },
    {
      "bufferView": 0,
      "componentType": 5125,
      "count": 2295,
      "type": "SCALAR"
    }
  ],
  "asset": {
    "extras": {
      "author": "Julian Malik (https://sketchfab.com/julianmalik)",
      "license": "CC-BY-4.0 (http://creativecommons.org/licenses/by/4.0/)",
      "source": "https://sketchfab.com/3d-models/large-tree-log-5a3b7ba7b639427ea970ccca90553aab",
      "title": "Large tree log"
    },
    "generator": "Sketchfab-12.66.0",
    "version": "2.0"
  },
  "bufferViews": [
    {
      "buffer": 0,
      "byteLength": 9180,
      "name": "floatBufferViews",
      "target": 34963
    },
    {
      "buffer": 0,
      "byteLength": 14688,
      "byteOffset": 9180,
      "byteStride": 8,
      "name": "floatBufferViews",
      "target": 34962
    },
    {
      "buffer": 0,
      "byteLength": 11016,
      "byteOffset": 23868,
      "byteStride": 12,
      "name": "floatBufferViews",
      "target": 34962
    },
    {
      "buffer": 0,
      "byteLength": 7344,
      "byteOffset": 34884,
      "byteStride": 16,
      "name": "floatBufferViews",
      "target": 34962
    }
  ],
  "buffers": [
    {
      "byteLength": 42228,
      "uri": "scene.bin"
    }
  ],
  "images": [
    {
      "uri": "textures/ForestLogLarge_1_baseColor_toon.png"
    },
    {
      "uri": "textures/ForestLogLarge_1_metallicRoughness.png"
    },
    {
      "uri": "textures/ForestLogLarge_1_normal.png"
    }
  ],
  "materials": [
    {
      "name": "ForestLogLarge_1",
      "normalTexture": {
        "index": 2
      },
      "occlusionTexture": {
        "index": 3
      },
      "pbrMetallicRoughness": {
        "baseColorFactor": [
          0.90566,
          0.90566,
          0.90566,
          1.0
        ],
        "baseColorTexture": {
          "index": 0
        },
        "metallicFactor": 0.0,
        "metallicRoughnessTexture": {
          "index": 1
        }
      }
    }
  ],
  "meshes": [
    {
      "name": "Object_0",
      "primitives": [
        {
          "attributes": {
            "NORMAL": 1,
            "POSITION": 0,
            "TANGENT": 2,
            "TEXCOORD_0": 3,
            "TEXCOORD_1": 4,
            "TEXCOORD_2": 5,
            "TEXCOORD_3": 6
          },
          "indices": 7,
          "material": 0,
          "mode": 4
        }
      ]
    }
  ],
  "nodes": [
    {
      "children": [
        1
      ],
      "matrix": [
        1.0,
        0.0,
        0.0,
        0.0,
        0.0,
        2.220446049250313e-16,
        -1.0,
        0.0,
        0.0,
        1.0,
        2.220446049250313e-16,
        0.0,
        0.0,
        0.0,
        0.0,
        1.0
      ],
      "name": "Sketchfab_model"
    },
    {
      "children": [
        2
      ],
      "name": "root"
    },
    {
      "children": [
        3
      ],
      "matrix": [
        1.0,
        0.0,
        0.0,
        0.0,
        0.0,
        2.220446049250313e-16,
        1.0,
        0.0,
        0.0,
        -1.0,
        2.220446049250313e-16,
        0.0,
        0.0,
        0.0,
        0.0,
        1.0
      ],
      "name": "GLTF_SceneRootNode"
    },
    {
      "children": [
        4
      ],
      "name": "ForestLogLarge_1_0"
    },
    {
      "mesh": 0,
      "name": "Object_4"
    }
  ],
  "samplers": [
    {
      "magFilter": 9729,
      "minFilter": 9729,
      "wrapS": 10497,
      "wrapT": 10497
    },
    {
      "magFilter": 9729,
      "minFilter": 9987,
      "wrapS": 10497,
      "wrapT": 10497
    }
  ],
  "scene": 0,
  "scenes": [
    {
      "name": "Sketchfab_Scene",
      "nodes": [
        0
      ]
    }
  ],
  "textures": [
    {
      "sampler": 0,
      "source": 0
    },
    {
      "sampler": 0,
      "source": 1
    },
    {
      "sampler": 0,
      "source": 2
    },
    {
      "sampler": 1,
      "source": 1
    }
  ]
}
